<?xml version="1.0" standalone="no"?>
<!DOCTYPE svg PUBLIC "-//W3C//DTD SVG 20010904//EN"
 "http://www.w3.org/TR/2001/REC-SVG-20010904/DTD/svg10.dtd">
<svg version="1.0" xmlns="http://www.w3.org/2000/svg"
 width="2400.000000pt" height="2400.000000pt" viewBox="0 0 2400.000000 2400.000000"
 preserveAspectRatio="xMidYMid meet">
<metadata>
Created by potrace 1.16, written by Peter Selinger 2001-2019
</metadata>
<g transform="translate(0.000000,2400.000000) scale(0.100000,-0.100000)"
fill="#000000" stroke="none">
<path d="M11735 20904 c-258 -19 -353 -28 -502 -49 -2455 -343 -4386 -2274
-4728 -4728 -40 -289 -50 -436 -50 -767 0 -331 10 -478 50 -767 197 -1412 925
-2686 2045 -3578 772 -615 1702 -1013 2683 -1150 289 -40 436 -50 767 -50 331
0 478 10 767 50 2454 342 4386 2274 4728 4728 40 289 50 436 50 767 0 331 -10
478 -50 767 -197 1412 -925 2686 -2045 3578 -839 668 -1841 1071 -2934 1180
-142 15 -671 27 -781 19z m597 -304 c1138 -77 2172 -493 3058 -1230 161 -134
486 -459 620 -620 810 -973 1240 -2149 1240 -3390 0 -1241 -430 -2417 -1240
-3390 -134 -161 -459 -486 -620 -620 -1148 -955 -2579 -1380 -4040 -1199
-1010 125 -1937 531 -2740 1199 -161 134 -486 459 -620 620 -810 973 -1240
2149 -1240 3390 0 1241 430 2417 1240 3390 134 161 459 486 620 620 804 669
1730 1074 2745 1200 317 39 675 50 977 30z"/>
<path d="M10185 16110 c-335 -27 -646 -170 -880 -404 -233 -234 -412 -594
-481 -967 -21 -117 -29 -373 -15 -494 34 -287 134 -561 287 -786 229 -338 496
-524 867 -606 118 -26 475 -26 597 0 211 45 417 136 574 254 101 75 243 223
313 324 167 243 301 603 333 899 17 153 8 413 -20 545 -101 478 -406 896 -800
1095 -79 40 -240 95 -335 114 -68 14 -310 38 -340 34 -5 0 -50 -4 -100 -8z
m168 -231 c183 -34 363 -169 500 -375 149 -224 240 -487 289 -834 21 -149 18
-674 -5 -816 -45 -289 -120 -459 -261 -597 -128 -124 -251 -177 -437 -184
-221 -10 -368 48 -530 207 -236 232 -392 596 -461 1075 -8 57 -13 193 -13 370
0 301 9 382 62 565 48 171 170 377 266 452 46 36 150 93 207 114 115 41 244
49 383 23z"/>
</g>
</svg>
