<?xml version="1.0" standalone="no"?>
<!DOCTYPE svg PUBLIC "-//W3C//DTD SVG 20010904//EN"
 "http://www.w3.org/TR/2001/REC-SVG-20010904/DTD/svg10.dtd">
<svg version="1.0" xmlns="http://www.w3.org/2000/svg"
 width="800.000000pt" height="1480.000000pt" viewBox="0 0 800.000000 1480.000000"
 preserveAspectRatio="xMidYMid meet">
<metadata>
Created by potrace 1.16, written by Peter Selinger 2001-2019
</metadata>
<g transform="translate(0.000000,1480.000000) scale(0.100000,-0.100000)"
fill="#000000" stroke="none">
<path d="M3795 10358 c-339 -38 -707 -193 -965 -406 -480 -396 -735 -1015
-669 -1620 86 -798 661 -1443 1440 -1616 276 -61 522 -61 798 0 779 173 1354
818 1440 1616 53 484 -105 997 -425 1378 -392 468 -1013 717 -1619 648z m426
-103 c218 -28 383 -80 579 -181 173 -89 294 -178 435 -319 141 -141 230 -262
319 -435 132 -257 196 -516 196 -800 0 -361 -116 -720 -328 -1020 -86 -122
-280 -316 -402 -402 -300 -212 -659 -328 -1020 -328 -361 0 -720 116 -1020
328 -122 86 -316 280 -402 402 -212 300 -328 659 -328 1020 0 361 116 720 328
1020 86 122 280 316 402 402 177 125 410 232 610 280 198 47 435 60 631 33z"/>
<path d="M3313 8755 c-169 -46 -293 -174 -351 -365 -81 -266 30 -556 256 -667
69 -35 83 -38 177 -41 166 -7 272 34 375 145 107 114 167 286 157 448 -14 237
-158 425 -370 481 -66 17 -176 17 -244 -1z m153 -66 c93 -24 188 -147 230
-299 15 -51 18 -101 18 -235 0 -154 -2 -176 -23 -228 -44 -112 -119 -169 -222
-169 -141 0 -243 111 -300 327 -28 106 -32 322 -7 405 50 162 161 235 304 199z"/>
</g>
</svg>
